<?xml version="1.0" encoding="UTF-8"?>
<svg id="Layer_2" data-name="Layer 2" xmlns="http://www.w3.org/2000/svg" viewBox="0 0 271.43 403.64">
  <defs>
    <style>
      .cls-1 {
        fill: #999;
        stroke-width: 0px;
      }
    </style>
  </defs>
  <g id="Layer_1-2" data-name="Layer 1">
    <g>
      <path class="cls-1" d="m269.8,226.98c-2.73-23.55-8.68-46.77-16.37-68.06-6.42-17.79-14.57-35.06-24.61-51.35-6.95-11.29-14.72-23.02-24.53-32.42,16.48,46.1-14.46,97.63-15.09,97.41C223.66,26.04,65.37.22,64.01,0c4.32,1.41,12.86,10.62,16.01,14.02,10.88,11.73,18.97,25.76,22.54,40.95,7.68,32.72-8.98,60.4-26.37,87.34,1.83-27.41-2.98-60.96-28.37-88.65,0,0,12.14,37.65-15.1,87.8-39.75,73.15-53.72,174.15,18.85,232.21,24.3,19.44,55.39,30.4,86.54,29.96,43.38-.62,85.53-23.08,109.13-59.53,22.35-34.53,27.29-76.32,22.56-117.11Zm-134.86,147.74c-50.58,0-91.59-41.01-91.59-91.59s41.01-91.59,91.59-91.59,91.59,41.01,91.59,91.59-41.01,91.59-91.59,91.59Z"/>
      <path class="cls-1" d="m133.32,351.37c.99.59,2.23.59,3.22,0,7.97-4.78,15.09-9.57,21.43-14.33,6.9-5.18,12.87-10.33,18-15.4.18-.18.36-.36.54-.53,1.12-1.12,2.21-2.25,3.25-3.36,31.46-33.65,25.91-63.17,8.61-74.94-31.84-21.48-53.44,6.14-53.44,6.14,0,0-14.36-18.36-36.89-13.51-1.66.36-3.36.84-5.1,1.47-.28.1-.55.2-.83.31-3.38,1.29-6.91,3.11-10.57,5.59-1.85,1.25-3.56,2.71-5.11,4.35-.18.2-.37.4-.55.6-1.04,1.16-1.99,2.4-2.86,3.72-13.43,20.49-5.55,60.37,60.3,99.89Z"/>
    </g>
  </g>
</svg>