<?xml version="1.0" encoding="UTF-8"?>
<svg id="Layer_2" data-name="Layer 2" xmlns="http://www.w3.org/2000/svg" xmlns:xlink="http://www.w3.org/1999/xlink" viewBox="0 0 3649.41 3324.05">
  <defs>
    <style>
      .cls-1, .cls-2, .cls-3 {
        stroke-width: 0px;
      }

      .cls-1, .cls-4 {
        fill: #ffc80a;
      }

      .cls-5 {
        clip-path: url(#clippath-2);
      }

      .cls-2, .cls-6 {
        fill: none;
      }

      .cls-7 {
        clip-path: url(#clippath-1);
      }

      .cls-3 {
        fill: #fff;
      }

      .cls-6 {
        stroke: #fff;
        stroke-dasharray: 0 12;
        stroke-miterlimit: 10;
        stroke-width: 2.63px;
      }

      .cls-8 {
        clip-path: url(#clippath);
      }

      .cls-4 {
        font-family: Montserrat-SemiBold, Montserrat;
        font-size: 173px;
        font-variation-settings: 'wght' 600;
        font-weight: 600;
      }
    </style>
    <clipPath id="clippath">
      <rect class="cls-2" x="308.51" y="159.36" width="1261.1" height="1973.13" transform="translate(1411.46 2550.15) rotate(-159.26)"/>
    </clipPath>
    <clipPath id="clippath-1">
      <rect class="cls-2" x="2079.79" y="159.36" width="1261.1" height="1973.13" transform="translate(-230.17 1034.07) rotate(-20.74)"/>
    </clipPath>
    <clipPath id="clippath-2">
      <rect class="cls-2" x="1195.62" y="1711.64" width="1151.33" height="1900.27" transform="translate(4587.52 1148.06) rotate(95.38)"/>
    </clipPath>
  </defs>
  <g id="Layer_1-2" data-name="Layer 1">
    <rect class="cls-2" x="977.85" y="509.06" width="790.41" height="1548.27"/>
    <g class="cls-8">
      <ellipse class="cls-6" cx="1985.36" cy="1655.2" rx="1391.6" ry="1532.76" transform="translate(-265.65 2925.75) rotate(-69.26)"/>
      <rect class="cls-3" x="2604.37" y="999.69" width="1261.1" height="1973.13" transform="translate(5556.82 4989.38) rotate(-159.26)"/>
    </g>
    <g class="cls-7">
      <ellipse class="cls-6" cx="1603.55" cy="1641.82" rx="1532.76" ry="1391.6" transform="translate(-477.5 674.26) rotate(-20.74)"/>
      <rect class="cls-3" x="-216.06" y="999.69" width="1261.1" height="1973.13" transform="translate(-676.53 275.5) rotate(-20.74)"/>
    </g>
    <g class="cls-5">
      <ellipse class="cls-6" cx="1806.14" cy="1554.86" rx="1399.34" ry="1340.21" transform="translate(88.67 3207.14) rotate(-84.62)"/>
      <rect class="cls-3" x="1431.07" y="-507.93" width="1151.33" height="1900.27" transform="translate(2635.29 -1514.19) rotate(95.38)"/>
    </g>
    <g>
      <path class="cls-1" d="m1999.45,367.32c0,47.46-69.7,69.71-155.68,69.71s-155.68-25.11-155.68-69.71c0-54.4,27.9-102.28,70.17-130.12,21.89,21.87,52.12,35.4,85.51,35.4s63.62-13.53,85.51-35.4c42.27,27.84,70.17,75.72,70.17,130.12Z"/>
      <circle class="cls-1" cx="1843.77" cy="151.64" r="105.18"/>
    </g>
    <text/>
    <path class="cls-1" d="m640.04,2411.23l1.49-99.97,11.94,6.71-89.52,54.46-42.52-71.62,96.98-52.97v23.13l-96.98-52.22,42.52-73.11,90.27,55.21-12.68,6.71-1.49-99.97h85.05l-2.24,99.97-11.19-6.71,88.78-55.21,44.02,73.11-97.73,52.22v-23.13l97.73,52.97-44.02,71.62-88.78-54.46,11.19-6.71,2.24,99.97h-85.05Z"/>
    <path class="cls-1" d="m2741.64,2350.98h91.27c.47,27.61,3.38,54.13,8.45,77.94-21.5,5.47-41.54,13.49-58.8,23.74-23.94-27.51-39.06-62.88-40.91-101.68Zm40.91-117.83c17.27,10.25,37.3,18.26,58.8,23.74-5.07,23.81-7.97,50.33-8.45,77.94h-91.27c1.85-38.8,16.97-74.17,40.91-101.68Zm293.44,101.68h-91.27c-.47-27.64-3.39-54.18-8.46-78,21.64-5.51,41.82-13.55,58.83-23.66,23.93,27.51,39.05,62.87,40.9,101.66Zm-226.93,0c.47-26.46,3.24-51.78,8.05-74.43,16.77,3.2,34.18,4.9,51.7,4.9s34.82-1.73,51.69-4.96c4.82,22.67,7.6,48.01,8.07,74.5h-119.51Zm119.51,16.15c-.47,26.49-3.25,51.83-8.07,74.5-16.87-3.24-34.34-4.96-51.69-4.96s-34.94,1.7-51.7,4.9c-4.81-22.65-7.58-47.97-8.05-74.43h119.51Zm3.89-109.96c-2.38-8.87-5.08-17.28-8.1-25.09-5.85-15.11-12.67-27.4-20.19-36.63,30.31,6.55,57.6,21.32,79.38,41.87-14.83,8.31-32.37,15.06-51.1,19.85Zm-23.16-19.26c2.74,7.09,5.2,14.72,7.39,22.77-15.73,2.99-31.96,4.61-47.87,4.61s-32.39-1.55-47.91-4.45c2.2-8.11,4.67-15.8,7.43-22.93,11.37-29.38,26.13-46.23,40.49-46.23s29.11,16.85,40.49,46.23Zm-96.03-5.83c-3.04,7.86-5.75,16.34-8.15,25.28-18.56-4.74-35.88-11.51-51.02-20.06,21.78-20.54,49.06-35.31,79.36-41.85-7.52,9.22-14.34,21.51-20.19,36.63Zm-8.15,228.68c2.4,8.94,5.11,17.42,8.15,25.28,5.85,15.11,12.67,27.4,20.19,36.63-30.3-6.54-57.58-21.31-79.36-41.85,15.15-8.55,32.47-15.32,51.02-20.06Zm23.21,19.45c-2.76-7.13-5.23-14.83-7.43-22.93,15.52-2.9,31.66-4.45,47.91-4.45s32.14,1.62,47.87,4.61c-2.19,8.05-4.64,15.68-7.39,22.77-11.37,29.38-26.13,46.23-40.49,46.23s-29.11-16.85-40.49-46.23Zm96.03,5.83c3.02-7.81,5.72-16.22,8.1-25.09,18.73,4.79,36.27,11.54,51.1,19.85-21.79,20.55-49.07,35.32-79.38,41.87,7.52-9.22,14.34-21.51,20.19-36.63Zm11.9-40.9c5.07-23.83,7.98-50.37,8.46-78.01h91.27c-1.85,38.79-16.97,74.16-40.9,101.66-17.02-10.11-37.19-18.15-58.83-23.66Z"/>
    <text class="cls-4" transform="translate(1158.71 1489.09)"><tspan x="0" y="0">Design &amp; Build</tspan></text>
  </g>
</svg>