<svg width="732" height="350" xmlns="http://www.w3.org/2000/svg">
    <g>
        <path d="m44.96297,0.00134l-44.96297,0l0,349.99867l131.31129,0l0,-41.95794l-86.34832,0l0,-308.04074l0,0.00001zm137.71855,349.99769l44.96346,0l0,-349.99854l-44.96346,0l0,349.99854zm355.7663,-161.44089l72.80628,0l0,-41.95818l-72.80628,0l0,-104.64045l79.44711,0l0,-41.95818l-124.41008,0l0,349.99867l128.75326,0l0,-41.95794l-83.79029,0l0,-119.48393l0,0.00001zm148.41683,161.44089l44.96005,0l0,-41.9578l-44.96005,0l0,41.9578zm0,-349.99854l0,266.07929l44.96005,0l0,-266.07929l-44.96005,0zm-326.0096,235.89105l-33.08467,-235.89154l-47.26354,0l63.85512,349.99855l32.19038,0l63.87853,-349.99855l-46.99925,0l-32.57659,235.89154l0.00002,0z" />
    </g>
</svg>